<mxfile host="app.diagrams.net" modified="2023-12-11T10:23:14.313Z" agent="Mozilla/5.0 (X11; Linux x86_64) AppleWebKit/537.36 (KHTML, like Gecko) Chrome/119.0.0.0 Safari/537.36" etag="j-Q5AkidGtf7P-dPm8A7" version="22.1.7" type="device">
  <diagram id="C5RBs43oDa-KdzZeNtuy" name="Page-1">
    <mxGraphModel dx="1509" dy="841" grid="1" gridSize="10" guides="1" tooltips="1" connect="1" arrows="1" fold="1" page="1" pageScale="1" pageWidth="827" pageHeight="1169" math="0" shadow="0">
      <root>
        <mxCell id="WIyWlLk6GJQsqaUBKTNV-0" />
        <mxCell id="WIyWlLk6GJQsqaUBKTNV-1" parent="WIyWlLk6GJQsqaUBKTNV-0" />
        <mxCell id="9IRxcyZh_DGoijw3kHqZ-3" style="edgeStyle=orthogonalEdgeStyle;rounded=0;orthogonalLoop=1;jettySize=auto;html=1;" edge="1" parent="WIyWlLk6GJQsqaUBKTNV-1">
          <mxGeometry relative="1" as="geometry">
            <mxPoint x="339.76" y="130" as="targetPoint" />
            <mxPoint x="339.76" y="110" as="sourcePoint" />
          </mxGeometry>
        </mxCell>
        <mxCell id="WIyWlLk6GJQsqaUBKTNV-3" value="Login" style="rounded=1;whiteSpace=wrap;html=1;fontSize=12;glass=0;strokeWidth=1;shadow=0;" parent="WIyWlLk6GJQsqaUBKTNV-1" vertex="1">
          <mxGeometry x="280" y="20" width="120" height="40" as="geometry" />
        </mxCell>
        <mxCell id="WIyWlLk6GJQsqaUBKTNV-6" value="type de paiement" style="rhombus;whiteSpace=wrap;html=1;shadow=0;fontFamily=Helvetica;fontSize=12;align=center;strokeWidth=1;spacing=6;spacingTop=-4;" parent="WIyWlLk6GJQsqaUBKTNV-1" vertex="1">
          <mxGeometry x="290" y="190" width="100" height="80" as="geometry" />
        </mxCell>
        <mxCell id="WIyWlLk6GJQsqaUBKTNV-7" value="Ajouter éléments au panier" style="rounded=1;whiteSpace=wrap;html=1;fontSize=12;glass=0;strokeWidth=1;shadow=0;" parent="WIyWlLk6GJQsqaUBKTNV-1" vertex="1">
          <mxGeometry x="280" y="80" width="120" height="30" as="geometry" />
        </mxCell>
        <mxCell id="9IRxcyZh_DGoijw3kHqZ-0" value="Paiement" style="rounded=1;whiteSpace=wrap;html=1;fontSize=12;glass=0;strokeWidth=1;shadow=0;" vertex="1" parent="WIyWlLk6GJQsqaUBKTNV-1">
          <mxGeometry x="280" y="130" width="120" height="40" as="geometry" />
        </mxCell>
        <mxCell id="9IRxcyZh_DGoijw3kHqZ-2" value="QR&lt;br&gt;" style="rounded=0;html=1;jettySize=auto;orthogonalLoop=1;fontSize=11;endArrow=block;endFill=0;endSize=8;strokeWidth=1;shadow=0;labelBackgroundColor=none;edgeStyle=orthogonalEdgeStyle;exitX=1;exitY=0.5;exitDx=0;exitDy=0;entryX=0.665;entryY=-0.071;entryDx=0;entryDy=0;entryPerimeter=0;" edge="1" parent="WIyWlLk6GJQsqaUBKTNV-1" source="WIyWlLk6GJQsqaUBKTNV-6">
          <mxGeometry x="-0.4571" y="30" relative="1" as="geometry">
            <mxPoint as="offset" />
            <mxPoint x="550" y="220" as="sourcePoint" />
            <mxPoint x="359.79999999999995" y="307.15999999999997" as="targetPoint" />
            <Array as="points">
              <mxPoint x="420" y="230" />
              <mxPoint x="420" y="280" />
              <mxPoint x="360" y="280" />
            </Array>
          </mxGeometry>
        </mxCell>
        <mxCell id="9IRxcyZh_DGoijw3kHqZ-5" style="edgeStyle=orthogonalEdgeStyle;rounded=0;orthogonalLoop=1;jettySize=auto;html=1;" edge="1" parent="WIyWlLk6GJQsqaUBKTNV-1">
          <mxGeometry relative="1" as="geometry">
            <mxPoint x="339.76" y="80" as="targetPoint" />
            <mxPoint x="339.76" y="60" as="sourcePoint" />
          </mxGeometry>
        </mxCell>
        <mxCell id="9IRxcyZh_DGoijw3kHqZ-6" style="edgeStyle=orthogonalEdgeStyle;rounded=0;orthogonalLoop=1;jettySize=auto;html=1;" edge="1" parent="WIyWlLk6GJQsqaUBKTNV-1">
          <mxGeometry relative="1" as="geometry">
            <mxPoint x="339.76" y="190" as="targetPoint" />
            <mxPoint x="339.76" y="170" as="sourcePoint" />
          </mxGeometry>
        </mxCell>
        <mxCell id="9IRxcyZh_DGoijw3kHqZ-11" value="NFC" style="rounded=0;html=1;jettySize=auto;orthogonalLoop=1;fontSize=11;endArrow=block;endFill=0;endSize=8;strokeWidth=1;shadow=0;labelBackgroundColor=none;edgeStyle=orthogonalEdgeStyle;" edge="1" parent="WIyWlLk6GJQsqaUBKTNV-1">
          <mxGeometry x="-0.3827" y="-20" relative="1" as="geometry">
            <mxPoint as="offset" />
            <mxPoint x="290" y="230" as="sourcePoint" />
            <mxPoint x="320" y="307" as="targetPoint" />
            <Array as="points">
              <mxPoint x="260" y="230" />
              <mxPoint x="260" y="280" />
              <mxPoint x="320" y="280" />
              <mxPoint x="320" y="307" />
            </Array>
          </mxGeometry>
        </mxCell>
        <mxCell id="9IRxcyZh_DGoijw3kHqZ-35" style="edgeStyle=orthogonalEdgeStyle;rounded=0;orthogonalLoop=1;jettySize=auto;html=1;entryX=0;entryY=0.5;entryDx=0;entryDy=0;" edge="1" parent="WIyWlLk6GJQsqaUBKTNV-1" source="9IRxcyZh_DGoijw3kHqZ-12" target="9IRxcyZh_DGoijw3kHqZ-14">
          <mxGeometry relative="1" as="geometry" />
        </mxCell>
        <mxCell id="9IRxcyZh_DGoijw3kHqZ-12" value="Lien vers compte" style="rhombus;whiteSpace=wrap;html=1;shadow=0;fontFamily=Helvetica;fontSize=12;align=center;strokeWidth=1;spacing=6;spacingTop=-4;" vertex="1" parent="WIyWlLk6GJQsqaUBKTNV-1">
          <mxGeometry x="290" y="300" width="100" height="80" as="geometry" />
        </mxCell>
        <mxCell id="9IRxcyZh_DGoijw3kHqZ-14" value="Verification montant sur le compte" style="rounded=1;whiteSpace=wrap;html=1;fontSize=12;glass=0;strokeWidth=1;shadow=0;" vertex="1" parent="WIyWlLk6GJQsqaUBKTNV-1">
          <mxGeometry x="460" y="320" width="120" height="40" as="geometry" />
        </mxCell>
        <mxCell id="9IRxcyZh_DGoijw3kHqZ-16" style="edgeStyle=orthogonalEdgeStyle;rounded=0;orthogonalLoop=1;jettySize=auto;html=1;" edge="1" parent="WIyWlLk6GJQsqaUBKTNV-1">
          <mxGeometry relative="1" as="geometry">
            <mxPoint x="520" y="390" as="targetPoint" />
            <mxPoint x="519.66" y="360" as="sourcePoint" />
          </mxGeometry>
        </mxCell>
        <mxCell id="9IRxcyZh_DGoijw3kHqZ-17" value="" style="shape=link;html=1;rounded=0;width=19.493087557603687;" edge="1" parent="WIyWlLk6GJQsqaUBKTNV-1">
          <mxGeometry width="100" relative="1" as="geometry">
            <mxPoint x="470" y="400" as="sourcePoint" />
            <mxPoint x="570" y="400" as="targetPoint" />
          </mxGeometry>
        </mxCell>
        <mxCell id="9IRxcyZh_DGoijw3kHqZ-19" style="edgeStyle=orthogonalEdgeStyle;rounded=0;orthogonalLoop=1;jettySize=auto;html=1;" edge="1" parent="WIyWlLk6GJQsqaUBKTNV-1">
          <mxGeometry relative="1" as="geometry">
            <mxPoint x="520.14" y="440" as="targetPoint" />
            <mxPoint x="519.8" y="410" as="sourcePoint" />
          </mxGeometry>
        </mxCell>
        <mxCell id="9IRxcyZh_DGoijw3kHqZ-20" value="Autorisation" style="rhombus;whiteSpace=wrap;html=1;shadow=0;fontFamily=Helvetica;fontSize=12;align=center;strokeWidth=1;spacing=6;spacingTop=-4;" vertex="1" parent="WIyWlLk6GJQsqaUBKTNV-1">
          <mxGeometry x="492.5" y="440" width="55" height="40" as="geometry" />
        </mxCell>
        <mxCell id="9IRxcyZh_DGoijw3kHqZ-25" style="edgeStyle=orthogonalEdgeStyle;rounded=0;orthogonalLoop=1;jettySize=auto;html=1;exitX=0;exitY=0.5;exitDx=0;exitDy=0;entryX=0.946;entryY=0.508;entryDx=0;entryDy=0;entryPerimeter=0;" edge="1" parent="WIyWlLk6GJQsqaUBKTNV-1" source="9IRxcyZh_DGoijw3kHqZ-20" target="9IRxcyZh_DGoijw3kHqZ-27">
          <mxGeometry relative="1" as="geometry">
            <mxPoint x="390" y="460" as="targetPoint" />
            <mxPoint x="390" y="440" as="sourcePoint" />
          </mxGeometry>
        </mxCell>
        <mxCell id="9IRxcyZh_DGoijw3kHqZ-27" value="Paiement accépté" style="rhombus;whiteSpace=wrap;html=1;shadow=0;fontFamily=Helvetica;fontSize=12;align=center;strokeWidth=1;spacing=6;spacingTop=-4;" vertex="1" parent="WIyWlLk6GJQsqaUBKTNV-1">
          <mxGeometry x="302.5" y="425" width="75" height="70" as="geometry" />
        </mxCell>
        <mxCell id="9IRxcyZh_DGoijw3kHqZ-28" style="edgeStyle=orthogonalEdgeStyle;rounded=0;orthogonalLoop=1;jettySize=auto;html=1;exitX=1;exitY=0.5;exitDx=0;exitDy=0;entryX=1;entryY=0.5;entryDx=0;entryDy=0;" edge="1" parent="WIyWlLk6GJQsqaUBKTNV-1" target="9IRxcyZh_DGoijw3kHqZ-0">
          <mxGeometry relative="1" as="geometry">
            <mxPoint x="680" y="459" as="targetPoint" />
            <mxPoint x="545" y="459.47" as="sourcePoint" />
            <Array as="points">
              <mxPoint x="613" y="460" />
              <mxPoint x="613" y="150" />
            </Array>
          </mxGeometry>
        </mxCell>
        <mxCell id="9IRxcyZh_DGoijw3kHqZ-29" value="Refus" style="edgeLabel;html=1;align=center;verticalAlign=middle;resizable=0;points=[];" vertex="1" connectable="0" parent="9IRxcyZh_DGoijw3kHqZ-28">
          <mxGeometry x="0.1638" y="-2" relative="1" as="geometry">
            <mxPoint x="25" y="116" as="offset" />
          </mxGeometry>
        </mxCell>
        <mxCell id="9IRxcyZh_DGoijw3kHqZ-30" value="Retour aux achats" style="rounded=1;whiteSpace=wrap;html=1;fontSize=12;glass=0;strokeWidth=1;shadow=0;" vertex="1" parent="WIyWlLk6GJQsqaUBKTNV-1">
          <mxGeometry x="280" y="530" width="120" height="40" as="geometry" />
        </mxCell>
        <mxCell id="9IRxcyZh_DGoijw3kHqZ-31" style="edgeStyle=orthogonalEdgeStyle;rounded=0;orthogonalLoop=1;jettySize=auto;html=1;entryX=0.5;entryY=0;entryDx=0;entryDy=0;" edge="1" parent="WIyWlLk6GJQsqaUBKTNV-1" target="9IRxcyZh_DGoijw3kHqZ-30">
          <mxGeometry relative="1" as="geometry">
            <mxPoint x="339.46999999999997" y="515" as="targetPoint" />
            <mxPoint x="339.46999999999997" y="495" as="sourcePoint" />
          </mxGeometry>
        </mxCell>
        <mxCell id="9IRxcyZh_DGoijw3kHqZ-32" value="" style="endArrow=classic;html=1;rounded=0;exitX=0;exitY=0.5;exitDx=0;exitDy=0;entryX=0;entryY=0.5;entryDx=0;entryDy=0;" edge="1" parent="WIyWlLk6GJQsqaUBKTNV-1" target="9IRxcyZh_DGoijw3kHqZ-0">
          <mxGeometry width="50" height="50" relative="1" as="geometry">
            <mxPoint x="290" y="340" as="sourcePoint" />
            <mxPoint x="280" y="160" as="targetPoint" />
            <Array as="points">
              <mxPoint x="200" y="340" />
              <mxPoint x="200" y="150" />
            </Array>
          </mxGeometry>
        </mxCell>
        <mxCell id="9IRxcyZh_DGoijw3kHqZ-36" value="Aucun compte" style="edgeLabel;html=1;align=center;verticalAlign=middle;resizable=0;points=[];" vertex="1" connectable="0" parent="9IRxcyZh_DGoijw3kHqZ-32">
          <mxGeometry x="-0.1611" y="2" relative="1" as="geometry">
            <mxPoint x="-48" y="-39" as="offset" />
          </mxGeometry>
        </mxCell>
      </root>
    </mxGraphModel>
  </diagram>
</mxfile>
